<?xml version="1.0" standalone="no"?>
<!DOCTYPE svg PUBLIC "-//W3C//DTD SVG 20010904//EN"
 "http://www.w3.org/TR/2001/REC-SVG-20010904/DTD/svg10.dtd">
<svg version="1.0" xmlns="http://www.w3.org/2000/svg"
 width="180.000000pt" height="180.000000pt" viewBox="0 0 180.000000 180.000000"
 preserveAspectRatio="xMidYMid meet">
<metadata>
Created by potrace 1.14, written by Peter Selinger 2001-2017
</metadata>
<g transform="translate(0.000000,180.000000) scale(0.100000,-0.100000)"
fill="#000000" stroke="none">
<path d="M0 900 l0 -900 900 0 900 0 0 900 0 900 -900 0 -900 0 0 -900z m604
257 c67 -38 76 -68 76 -255 0 -150 -2 -168 -22 -203 -33 -60 -83 -79 -201 -79
l-97 0 0 280 0 280 103 0 c87 0 108 -4 141 -23z m416 -27 l0 -50 -90 0 -90 0
0 -65 0 -65 55 0 55 0 0 -50 0 -50 -55 0 -55 0 0 -65 0 -65 90 0 90 0 0 -50 0
-50 -117 0 c-173 0 -163 -16 -163 279 0 297 -9 281 162 281 l118 0 0 -50z
m181 8 c6 -24 28 -108 49 -188 21 -80 39 -143 40 -140 1 3 23 86 49 185 l47
180 58 3 c48 3 58 0 53 -12 -3 -8 -34 -122 -68 -253 -53 -199 -67 -243 -90
-265 -15 -16 -38 -28 -52 -28 -31 0 -73 47 -86 98 -6 20 -33 125 -61 232 -28
107 -53 203 -56 213 -5 15 2 17 50 17 l55 0 12 -42z"/>
<path d="M460 900 l0 -180 38 0 c21 0 48 7 60 16 21 14 22 22 22 164 0 142 -1
150 -22 164 -12 9 -39 16 -60 16 l-38 0 0 -180z"/>
</g>
</svg>
